<svg width="1889" height="684" viewBox="0 0 1889 684" fill="none" xmlns="http://www.w3.org/2000/svg">
<path d="M671.889 362.694L671.531 376.658L651.839 377.374C648.974 394.083 644.32 407.569 637.875 417.833C631.669 428.097 621.166 439.196 606.367 451.131C591.568 463.065 573.786 472.971 553.019 480.848C532.491 488.964 515.305 493.022 501.461 493.022C487.617 493.022 477.114 490.157 469.953 484.429C462.793 478.939 459.212 471.658 459.212 462.588C459.212 448.744 467.328 434.9 483.559 421.055C500.029 406.972 519.841 395.276 542.994 385.967C566.386 376.419 589.539 369.975 612.454 366.633C608.874 360.666 603.384 355.772 595.984 351.953C588.823 348.134 576.531 343.838 559.106 339.064C549.558 336.438 544.784 332.142 544.784 326.174C544.784 322.594 546.216 319.371 549.081 316.507C552.184 313.404 557.196 309.824 564.118 305.766C571.279 301.469 577.963 297.173 584.169 292.876C590.614 288.341 597.655 282.97 605.293 276.764C613.17 270.558 619.734 264.114 624.986 257.43C630.237 250.747 632.862 244.899 632.862 239.886C632.862 231.532 628.685 227.355 620.331 227.355C613.886 227.355 605.055 230.458 593.836 236.664C582.856 242.631 571.995 250.389 561.254 259.936L545.858 308.63C535.117 342.763 523.182 369.259 510.054 388.115C497.165 406.972 484.872 416.401 473.176 416.401C460.764 416.401 454.558 408.762 454.558 393.486C454.558 378.21 461.957 358.756 476.756 335.125C491.555 311.256 512.083 286.79 538.339 261.727C538.339 261.488 538.936 259.34 540.13 255.282C541.562 250.985 542.875 246.689 544.068 242.392C548.126 229.503 551.229 221.268 553.377 217.687L570.921 220.552C570.921 225.087 569.966 230.458 568.057 236.664C581.424 226.639 595.507 217.926 610.306 210.527C625.344 202.888 636.324 199.069 643.246 199.069C650.407 199.069 656.135 201.337 660.432 205.872C664.728 210.169 666.876 216.613 666.876 225.206C666.876 233.561 662.819 243.228 654.703 254.208C646.826 265.188 636.92 275.094 624.986 283.925C603.264 300.156 584.766 311.852 569.489 319.013C594.313 322.832 612.454 327.964 623.911 334.409C635.369 340.615 643.723 350.044 648.974 362.694H671.889ZM497.881 370.929C514.589 343.957 525.689 316.268 531.179 287.864C518.289 301.947 506.593 318.059 496.091 336.199C485.588 354.34 480.337 367.468 480.337 375.584C480.337 380.597 482.008 383.103 485.349 383.103C488.93 383.103 493.107 379.045 497.881 370.929ZM580.946 447.55C592.642 439.673 601.952 430.842 608.874 421.055C615.796 411.269 619.257 402.079 619.257 393.486C619.257 389.428 618.66 385.37 617.467 381.313C581.663 385.609 552.184 395.038 529.03 409.598C505.877 423.92 494.3 437.645 494.3 450.773C494.3 456.501 496.568 461.037 501.103 464.378C505.638 467.959 511.844 469.749 519.721 469.749C539.056 469.749 559.464 462.349 580.946 447.55Z" fill="black"/>
<circle cx="696.663" cy="465.429" r="23.5206" fill="black"/>
<path d="M533.571 177.129C545.875 166.365 552.038 160.972 558.475 157.819C565.822 154.215 573.861 152.344 582.003 152.344C590.145 152.344 598.184 154.215 605.531 157.819C611.968 160.972 618.131 166.365 630.435 177.129C643.119 188.22 655.995 193.83 672.937 195.2C689.052 196.526 697.121 197.2 703.855 199.636C719.399 205.29 731.639 217.837 737.124 233.82C739.496 240.713 740.152 248.998 741.444 265.568C742.778 282.965 748.22 296.164 759.021 309.19C769.524 321.824 774.776 328.152 777.847 334.763C784.962 350.05 784.962 367.816 777.847 383.081C774.776 389.692 769.524 396.02 759.042 408.654C748.556 420.751 742.355 436.129 741.444 452.297C740.152 468.846 739.496 477.131 737.124 484.046C734.409 491.93 730.01 499.09 724.249 505.001C718.489 510.913 711.513 515.425 703.834 518.208C697.121 520.644 689.052 521.318 672.915 522.644C655.974 524.014 643.119 529.603 630.435 540.693C618.131 551.479 611.968 556.872 605.531 560.025C598.184 563.629 590.145 565.5 582.003 565.5C573.861 565.5 565.822 563.629 558.475 560.025C552.038 556.872 545.875 551.479 533.571 540.715C521.791 529.947 506.815 523.58 491.069 522.644C474.954 521.318 466.885 520.644 460.151 518.208C452.473 515.42 445.5 510.903 439.744 504.988C433.987 499.073 429.592 491.91 426.882 484.024C424.51 477.131 423.854 468.846 422.562 452.276C421.654 436.118 415.461 420.747 404.985 408.654C394.482 396.02 389.23 389.692 386.138 383.081C382.631 375.536 380.813 367.28 380.816 358.92C380.82 350.559 382.646 342.305 386.159 334.763C389.23 328.152 394.482 321.824 404.964 309.19C415.976 295.903 421.249 282.595 422.562 265.547C423.854 248.998 424.51 240.713 426.882 233.798C429.597 225.914 433.996 218.754 439.757 212.843C445.517 206.931 452.493 202.419 460.172 199.636C466.885 197.2 474.954 196.526 491.091 195.2C506.826 194.267 521.794 187.886 533.571 177.129Z" stroke="black" stroke-width="32.7083" stroke-linecap="round" stroke-linejoin="round"/>
<path d="M1017.57 354.104L1017.36 362.485L1005.54 362.915C1003.82 372.943 1001.02 381.038 997.157 387.198C993.432 393.358 987.128 400.02 978.246 407.183C969.364 414.346 958.691 420.292 946.227 425.019C933.906 429.89 923.591 432.326 915.282 432.326C906.972 432.326 900.669 430.607 896.371 427.168C892.073 423.873 889.924 419.504 889.924 414.06C889.924 405.75 894.795 397.441 904.537 389.132C914.422 380.679 926.313 373.659 940.21 368.072C954.249 362.342 968.146 358.474 981.899 356.468C979.75 352.886 976.455 349.949 972.014 347.657C967.716 345.365 960.338 342.786 949.88 339.921C944.149 338.345 941.284 335.766 941.284 332.185C941.284 330.036 942.144 328.102 943.863 326.383C945.725 324.52 948.734 322.371 952.888 319.936C957.186 317.357 961.198 314.778 964.922 312.199C968.791 309.477 973.017 306.254 977.601 302.529C982.329 298.804 986.269 294.936 989.421 290.925C992.572 286.913 994.148 283.403 994.148 280.395C994.148 275.381 991.641 272.874 986.627 272.874C982.759 272.874 977.458 274.736 970.725 278.461C964.135 282.042 957.616 286.699 951.169 292.429L941.929 321.655C935.482 342.141 928.319 358.044 920.439 369.362C912.703 380.679 905.325 386.338 898.305 386.338C890.855 386.338 887.13 381.754 887.13 372.585C887.13 363.416 891.572 351.74 900.454 337.557C909.336 323.231 921.657 308.546 937.416 293.504C937.416 293.36 937.774 292.071 938.49 289.635C939.35 287.057 940.138 284.478 940.854 281.899C943.29 274.163 945.152 269.22 946.442 267.071L956.971 268.791C956.971 271.513 956.398 274.736 955.252 278.461C963.275 272.444 971.728 267.215 980.61 262.774C989.635 258.189 996.226 255.897 1000.38 255.897C1004.68 255.897 1008.12 257.258 1010.7 259.98C1013.27 262.559 1014.56 266.427 1014.56 271.584C1014.56 276.598 1012.13 282.401 1007.26 288.991C1002.53 295.581 996.584 301.526 989.421 306.827C976.384 316.569 965.281 323.589 956.112 327.887C971.011 330.179 981.899 333.259 988.776 337.127C995.653 340.852 1000.67 346.511 1003.82 354.104H1017.57ZM913.133 359.047C923.161 342.858 929.823 326.239 933.118 309.191C925.382 317.643 918.362 327.314 912.058 338.202C905.755 349.09 902.603 356.969 902.603 361.84C902.603 364.849 903.606 366.353 905.611 366.353C907.76 366.353 910.267 363.918 913.133 359.047ZM962.988 405.034C970.008 400.306 975.596 395.006 979.75 389.132C983.905 383.258 985.982 377.742 985.982 372.585C985.982 370.149 985.624 367.714 984.908 365.279C963.418 367.857 945.725 373.516 931.829 382.255C917.932 390.851 910.984 399.089 910.984 406.968C910.984 410.407 912.345 413.129 915.067 415.134C917.789 417.283 921.514 418.358 926.241 418.358C937.846 418.358 950.095 413.916 962.988 405.034ZM1087.41 329.176C1091.14 335.336 1093 342.141 1093 349.591C1093 361.196 1088.99 371.582 1080.96 380.751C1072.94 389.777 1063.49 394.289 1052.6 394.289C1044.29 394.289 1037.77 391.926 1033.04 387.198C1028.46 382.327 1026.17 375.665 1026.17 367.213C1026.17 353.603 1031.47 341.425 1042.07 330.68C1052.67 319.792 1064.56 314.348 1077.74 314.348C1080.18 314.348 1081.9 314.42 1082.9 314.563L1083.54 321.655C1072.08 321.655 1062.55 324.95 1054.96 331.54C1047.37 338.13 1043.57 346.583 1043.57 356.898C1043.57 363.058 1045.08 368.072 1048.09 371.94C1051.09 375.665 1055.46 377.528 1061.19 377.528C1067.07 377.528 1071.72 374.949 1075.16 369.791C1078.6 364.634 1080.32 358.617 1080.32 351.74C1080.32 344.72 1078.96 338.345 1076.24 332.614L1087.41 329.176ZM1158.55 329.176C1162.28 335.336 1164.14 342.141 1164.14 349.591C1164.14 361.196 1160.13 371.582 1152.11 380.751C1144.08 389.777 1134.63 394.289 1123.74 394.289C1115.43 394.289 1108.91 391.926 1104.18 387.198C1099.6 382.327 1097.31 375.665 1097.31 367.213C1097.31 353.603 1102.61 341.425 1113.21 330.68C1123.81 319.792 1135.7 314.348 1148.88 314.348C1151.32 314.348 1153.04 314.42 1154.04 314.563L1154.68 321.655C1143.22 321.655 1133.7 324.95 1126.1 331.54C1118.51 338.13 1114.71 346.583 1114.71 356.898C1114.71 363.058 1116.22 368.072 1119.23 371.94C1122.24 375.665 1126.61 377.528 1132.34 377.528C1138.21 377.528 1142.87 374.949 1146.3 369.791C1149.74 364.634 1151.46 358.617 1151.46 351.74C1151.46 344.72 1150.1 338.345 1147.38 332.614L1158.55 329.176ZM1255.27 371.081L1260.64 375.808C1252.33 389.418 1243.52 396.223 1234.21 396.223C1228.48 396.223 1222.6 391.997 1216.59 383.545C1210.57 375.092 1207.56 368.144 1207.56 362.7C1207.56 359.261 1212.72 355.823 1223.03 352.385C1226.9 351.095 1230.41 349.161 1233.56 346.583C1236.86 343.861 1238.51 341.067 1238.51 338.202C1238.51 335.336 1237.72 333.188 1236.14 331.755C1234.57 330.179 1232.56 329.391 1230.12 329.391C1214.37 330.824 1197.89 352.027 1180.7 393L1167.59 388.487C1167.59 382.327 1175.9 357.399 1192.52 313.704C1209.28 270.008 1221.17 243.576 1228.19 234.407L1238.72 238.275C1219.38 271.942 1203.19 311.053 1190.15 355.608C1201.33 338.846 1210.93 327.672 1218.95 322.085C1226.97 316.497 1234.64 313.704 1241.94 313.704C1246.39 313.704 1249.9 315.065 1252.47 317.787C1255.2 320.509 1256.56 324.019 1256.56 328.317C1256.56 332.471 1255.48 336.268 1253.33 339.706C1251.33 343.144 1248.39 346.153 1244.52 348.732C1238.94 352.456 1232.06 356.11 1223.89 359.691C1225.18 366.425 1227.4 371.51 1230.55 374.949C1233.71 378.387 1237.29 380.106 1241.3 380.106C1243.45 380.106 1248.1 377.098 1255.27 371.081ZM1326 367.642L1330.94 371.51C1326.5 377.671 1320.41 382.828 1312.67 386.983C1304.94 390.994 1297.41 393 1290.11 393C1282.8 393 1276.93 390.851 1272.49 386.553C1268.04 382.255 1265.82 376.596 1265.82 369.576C1265.82 356.396 1272.77 343.431 1286.67 330.68C1300.71 317.93 1314.89 311.555 1329.22 311.555C1338.67 311.555 1343.4 315.28 1343.4 322.729C1343.4 330.466 1338.39 338.273 1328.36 346.153C1318.47 354.032 1304.51 361.196 1286.45 367.642C1287.74 370.937 1289.75 373.516 1292.47 375.379C1295.19 377.241 1297.99 378.172 1300.85 378.172C1307.01 378.172 1315.39 374.662 1326 367.642ZM1285.38 361.196C1296.98 357.184 1306.94 352.17 1315.25 346.153C1323.56 340.136 1327.71 334.62 1327.71 329.606C1327.71 327.743 1327 326.096 1325.57 324.663C1324.13 323.231 1322.49 322.514 1320.62 322.514C1313.89 322.514 1306.58 326.741 1298.7 335.193C1290.97 343.502 1286.53 352.17 1285.38 361.196ZM1407.84 316.927C1411.42 316.927 1414.36 318.145 1416.65 320.58C1418.94 323.016 1420.09 326.168 1420.09 330.036C1420.09 337.772 1415.65 345.938 1406.77 354.534L1401.61 350.451C1403.61 346.01 1404.62 342.786 1404.62 340.78C1404.62 336.912 1402.47 334.978 1398.17 334.978C1393.87 334.978 1389.79 337.7 1385.92 343.144C1382.05 348.588 1377.47 357.041 1372.17 368.502C1367.01 379.82 1363.07 387.843 1360.35 392.57L1348.1 387.198C1355.98 369.29 1360.49 358.76 1361.64 355.608C1365.51 344.434 1367.44 330.251 1367.44 313.059L1379.47 309.836C1379.04 319.148 1378.4 326.382 1377.54 331.54C1376.68 336.554 1374.6 344.792 1371.31 356.253C1385.78 330.036 1397.95 316.927 1407.84 316.927ZM1467.9 301.884C1459.87 301.884 1455.86 298.661 1455.86 292.214C1455.86 288.633 1456.87 285.624 1458.87 283.189C1460.88 280.753 1463.46 279.535 1466.61 279.535C1469.76 279.535 1472.34 280.467 1474.34 282.329C1476.35 284.191 1477.35 286.627 1477.35 289.635C1477.35 292.644 1476.49 295.438 1474.77 298.016C1473.05 300.595 1470.76 301.884 1467.9 301.884ZM1465.1 365.279L1469.4 368.932C1465.96 375.522 1461.38 381.181 1455.65 385.908C1450.06 390.493 1444.97 392.785 1440.39 392.785C1432.37 392.785 1428.36 387.198 1428.36 376.023C1428.36 362.127 1434.09 344.004 1445.55 321.655C1448.13 316.784 1449.63 313.919 1450.06 313.059L1459.3 318.646C1456.29 324.09 1452.57 332.758 1448.13 344.649C1443.83 356.539 1441.68 364.204 1441.68 367.642C1441.68 370.937 1442.4 373.301 1443.83 374.734C1445.26 376.167 1446.98 376.883 1448.99 376.883C1452.85 376.883 1458.23 373.015 1465.1 365.279ZM1527.55 308.546L1520.67 334.549L1548.61 331.325L1542.37 341.425L1518.31 344.649C1516.44 352.385 1513.29 364.061 1508.85 379.676C1499.25 413.487 1494.45 434.905 1494.45 443.93L1480.7 451.022C1480.7 438.701 1486 414.919 1496.6 379.676C1502.05 362.055 1505.41 350.737 1506.7 345.723C1501.69 347.012 1497.1 347.657 1492.95 347.657C1484.78 347.657 1480.7 344.434 1480.7 337.987C1480.7 334.405 1483.42 330.107 1488.87 325.093C1496.74 317.787 1506.13 311.34 1517.02 305.753C1525.47 276.957 1531.56 258.905 1535.28 251.599C1540.3 241.714 1544.88 235.41 1549.04 232.688C1555.2 228.82 1561.57 226.886 1568.16 226.886C1574.75 226.886 1579.41 228.748 1582.13 232.473C1584.85 236.198 1586.07 240.568 1585.78 245.582C1585.07 263.633 1565.65 284.621 1527.55 308.546ZM1561.93 245.152C1553.91 245.152 1547.96 249.02 1544.09 256.756C1541.08 262.774 1538.43 270.008 1536.14 278.461C1533.85 286.913 1532.2 292.716 1531.2 295.867C1539.08 290.996 1547.53 284.406 1556.56 276.097C1565.58 267.788 1570.24 260.553 1570.53 254.393C1570.81 248.232 1567.95 245.152 1561.93 245.152ZM1509.71 335.623L1514.44 316.712C1508.99 319.004 1504.7 321.368 1501.54 323.804C1498.54 326.239 1497.03 328.317 1497.03 330.036C1497.03 333.761 1501.26 335.623 1509.71 335.623ZM1643.12 379.462L1643.77 385.049C1643.19 385.479 1636.53 388.057 1623.78 392.785C1622.06 402.24 1619.84 411.553 1617.12 420.721C1614.54 430.034 1611.89 437.054 1609.17 441.781C1606.59 446.652 1603.51 451.451 1599.93 456.179C1592.76 465.635 1583.09 470.362 1570.92 470.362C1564.9 470.362 1560.1 468.5 1556.52 464.775C1552.94 461.05 1551.15 455.964 1551.15 449.517C1551.15 424.733 1571.92 404.819 1613.47 389.777L1625.07 348.946C1612.75 367.427 1601.65 378.817 1591.76 383.115C1586.89 385.407 1581.73 386.553 1576.29 386.553C1570.99 386.553 1566.69 384.834 1563.4 381.396C1560.24 377.957 1558.67 372.943 1558.67 366.353C1558.67 359.763 1560.89 350.594 1565.33 338.846C1569.91 326.956 1575 316.999 1580.59 308.976L1591.12 313.489C1590.69 313.919 1588.68 317.715 1585.1 324.878C1578.8 337.915 1575.64 347.585 1575.64 353.889C1575.64 360.193 1576.86 364.419 1579.3 366.568C1581.73 368.717 1585.31 369.791 1590.04 369.791C1594.77 369.791 1600.07 366.998 1605.94 361.41C1611.96 355.68 1621.2 344.434 1633.67 327.672L1641.4 332.185C1640.26 336.912 1637.68 345.508 1633.67 357.972C1629.8 370.293 1627.15 379.748 1625.72 386.338L1643.12 379.462ZM1612.18 396.223C1603.15 400.378 1595.2 405.106 1588.32 410.407C1575.43 420.148 1568.98 429.604 1568.98 438.773C1568.98 442.211 1569.99 445.005 1571.99 447.154C1574 449.303 1576.5 450.377 1579.51 450.377C1593.84 450.377 1604.73 432.326 1612.18 396.223Z" fill="black"/>
</svg>
