<svg width="157" height="44" viewBox="0 0 157 44" fill="none" xmlns="http://www.w3.org/2000/svg">
<path d="M29.5942 22.8563L29.5602 24.1801L27.6934 24.248C27.4218 25.832 26.9806 27.1105 26.3696 28.0835C25.7812 29.0566 24.7856 30.1088 23.3826 31.2402C21.9796 32.3717 20.2938 33.3107 18.3251 34.0575C16.3791 34.8269 14.7498 35.2116 13.4373 35.2116C12.1249 35.2116 11.1292 34.94 10.4504 34.3969C9.77151 33.8765 9.43208 33.1863 9.43208 32.3264C9.43208 31.0139 10.2015 29.7015 11.7402 28.389C13.3016 27.0539 15.1797 25.9451 17.3747 25.0626C19.5923 24.1575 21.7873 23.5465 23.9596 23.2297C23.6202 22.664 23.0998 22.2001 22.3983 21.838C21.7194 21.476 20.554 21.0687 18.9022 20.6161C17.997 20.3672 17.5444 19.9599 17.5444 19.3942C17.5444 19.0547 17.6802 18.7492 17.9517 18.4777C18.2459 18.1835 18.7211 17.8441 19.3774 17.4594C20.0562 17.0521 20.6898 16.6448 21.2782 16.2375C21.8891 15.8075 22.5567 15.2984 23.2808 14.71C24.0275 14.1217 24.6498 13.5107 25.1476 12.8771C25.6455 12.2435 25.8944 11.6891 25.8944 11.2139C25.8944 10.4219 25.4984 10.0259 24.7064 10.0259C24.0954 10.0259 23.2582 10.3201 22.1946 10.9084C21.1537 11.4741 20.1241 12.2096 19.1058 13.1147L17.6463 17.731C16.628 20.9668 15.4965 23.4786 14.252 25.2663C13.03 27.0539 11.8647 27.9478 10.7559 27.9478C9.57917 27.9478 8.99082 27.2237 8.99082 25.7754C8.99082 24.3272 9.69231 22.483 11.0953 20.2427C12.4983 17.9799 14.4443 15.6604 16.9335 13.2844C16.9335 13.2618 16.99 13.0581 17.1032 12.6735C17.2389 12.2661 17.3634 11.8588 17.4765 11.4515C17.8612 10.2296 18.1554 9.44888 18.3591 9.10945L20.0223 9.381C20.0223 9.81094 19.9318 10.3201 19.7507 10.9084C21.0179 9.95803 22.353 9.13208 23.756 8.4306C25.1816 7.70648 26.2225 7.34442 26.8787 7.34442C27.5576 7.34442 28.1007 7.5594 28.508 7.98934C28.9153 8.39665 29.119 9.00763 29.119 9.82226C29.119 10.6143 28.7343 11.5307 27.9649 12.5716C27.2182 13.6125 26.2791 14.5516 25.1476 15.3889C23.0884 16.9276 21.3347 18.0364 19.8865 18.7153C22.2399 19.0774 23.9596 19.5639 25.0458 20.1748C26.132 20.7632 26.924 21.657 27.4218 22.8563H29.5942ZM13.0979 23.637C14.6819 21.08 15.7341 18.4551 16.2546 15.7623C15.0327 17.0974 13.9239 18.6248 12.9282 20.3446C11.9325 22.0643 11.4347 23.3089 11.4347 24.0783C11.4347 24.5535 11.5931 24.7911 11.9099 24.7911C12.2493 24.7911 12.6453 24.4064 13.0979 23.637ZM20.9727 30.9008C22.0815 30.1541 22.964 29.3168 23.6202 28.389C24.2764 27.4613 24.6046 26.5901 24.6046 25.7754C24.6046 25.3907 24.548 25.0061 24.4348 24.6214C21.0406 25.0287 18.2459 25.9225 16.0509 27.3029C13.856 28.6606 12.7585 29.9617 12.7585 31.2063C12.7585 31.7494 12.9735 32.1793 13.4034 32.4961C13.8333 32.8355 14.4217 33.0053 15.1684 33.0053C17.0013 33.0053 18.9361 32.3038 20.9727 30.9008Z" fill="black"/>
<circle cx="31.9427" cy="32.8895" r="2.22979" fill="black"/>
<path d="M16.4814 5.509C17.6478 4.49761 18.232 3.9909 18.8423 3.69463C19.5388 3.35596 20.3009 3.18018 21.0728 3.18018C21.8447 3.18018 22.6068 3.35596 23.3032 3.69463C23.9135 3.9909 24.4977 4.49761 25.6642 5.509C26.8667 6.55103 28.0873 7.07818 29.6934 7.2069C31.2212 7.33154 31.9861 7.39488 32.6245 7.62372C34.0981 8.15495 35.2585 9.33388 35.7784 10.8356C36.0033 11.4833 36.0655 12.2618 36.188 13.8187C36.3145 15.4533 36.8304 16.6935 37.8543 17.9174C38.8501 19.1045 39.348 19.6991 39.6391 20.3202C40.3136 21.7566 40.3136 23.4259 39.6391 24.8602C39.348 25.4813 38.8501 26.0759 37.8563 27.263C36.8622 28.3996 36.2744 29.8446 36.188 31.3637C36.0655 32.9186 36.0033 33.6971 35.7784 34.3468C35.5211 35.0876 35.104 35.7603 34.5579 36.3158C34.0118 36.8712 33.3505 37.2952 32.6225 37.5567C31.9861 37.7855 31.2212 37.8488 29.6914 37.9735C28.0853 38.1022 26.8667 38.6273 25.6642 39.6693C24.4977 40.6828 23.9135 41.1895 23.3032 41.4857C22.6068 41.8244 21.8447 42.0002 21.0728 42.0002C20.3009 42.0002 19.5388 41.8244 18.8423 41.4857C18.232 41.1895 17.6478 40.6828 16.4814 39.6714C15.3646 38.6597 13.9448 38.0614 12.4521 37.9735C10.9244 37.8488 10.1595 37.7855 9.52105 37.5567C8.79317 37.2947 8.13213 36.8703 7.58638 36.3145C7.04064 35.7587 6.62403 35.0857 6.36711 34.3447C6.14226 33.6971 6.08002 32.9186 5.95756 31.3617C5.87144 29.8435 5.28431 28.3993 4.29125 27.263C3.29548 26.0759 2.7976 25.4813 2.50449 24.8602C2.17203 24.1512 1.99965 23.3755 2 22.59C2.00035 21.8044 2.17341 21.0289 2.5065 20.3202C2.7976 19.6991 3.29548 19.1045 4.28924 17.9174C5.3332 16.669 5.83309 15.4185 5.95756 13.8167C6.08002 12.2618 6.14226 11.4833 6.36711 10.8336C6.62449 10.0928 7.04152 9.42003 7.58761 8.86461C8.1337 8.30919 8.79501 7.88519 9.52306 7.62372C10.1595 7.39488 10.9244 7.33154 12.4542 7.2069C13.9459 7.11925 15.3649 6.51967 16.4814 5.509Z" stroke="black" stroke-width="3.1008" stroke-linecap="round" stroke-linejoin="round"/>
<path d="M65.7256 22.4518L65.6949 23.6473L64.009 23.7086C63.7638 25.1391 63.3653 26.2937 62.8135 27.1724C62.2822 28.0511 61.3831 29.0013 60.1161 30.0231C58.8491 31.0448 57.3267 31.8929 55.5488 32.5673C53.7914 33.2621 52.3201 33.6095 51.1348 33.6095C49.9496 33.6095 49.0504 33.3642 48.4374 32.8738C47.8243 32.4038 47.5178 31.7805 47.5178 31.004C47.5178 29.8187 48.2126 28.6335 49.6022 27.4482C51.0122 26.2426 52.7083 25.2412 54.6905 24.4443C56.6932 23.6269 58.6754 23.0751 60.6372 22.789C60.3307 22.2781 59.8607 21.8592 59.2272 21.5323C58.6141 21.2053 57.5617 20.8375 56.0699 20.4288C55.2525 20.204 54.8438 19.8361 54.8438 19.3252C54.8438 19.0187 54.9664 18.7428 55.2116 18.4976C55.4773 18.232 55.9064 17.9254 56.4991 17.578C57.1121 17.2102 57.6843 16.8424 58.2156 16.4745C58.7674 16.0863 59.3702 15.6265 60.0241 15.0952C60.6985 14.5638 61.2605 14.0121 61.71 13.4399C62.1596 12.8677 62.3844 12.3671 62.3844 11.9379C62.3844 11.2227 62.0268 10.8651 61.3116 10.8651C60.7598 10.8651 60.0037 11.1307 59.0432 11.662C58.1032 12.1729 57.1734 12.8371 56.2538 13.6545L54.9358 17.8233C54.0162 20.7455 52.9944 23.0138 51.8705 24.6282C50.767 26.2426 49.7146 27.0498 48.7132 27.0498C47.6506 27.0498 47.1193 26.3958 47.1193 25.088C47.1193 23.7801 47.7528 22.1147 49.0198 20.0916C50.2868 18.048 52.0442 15.9534 54.2921 13.8077C54.2921 13.7873 54.3431 13.6034 54.4453 13.256C54.5679 12.8882 54.6803 12.5203 54.7825 12.1525C55.1299 11.049 55.3956 10.344 55.5795 10.0374L57.0815 10.2827C57.0815 10.6709 56.9997 11.1307 56.8362 11.662C57.9806 10.8038 59.1863 10.0579 60.4533 9.42438C61.7407 8.77046 62.6807 8.44349 63.2733 8.44349C63.8864 8.44349 64.3768 8.63763 64.7447 9.0259C65.1125 9.39373 65.2964 9.94548 65.2964 10.6811C65.2964 11.3964 64.949 12.224 64.2542 13.164C63.5799 14.104 62.7318 14.9521 61.71 15.7082C59.8504 17.0978 58.2667 18.0991 56.9589 18.7122C59.0841 19.0392 60.6372 19.4785 61.6181 20.0303C62.599 20.5616 63.3142 21.3688 63.7638 22.4518H65.7256ZM50.8283 23.1569C52.2588 20.8477 53.209 18.4772 53.679 16.0454C52.5755 17.2511 51.5742 18.6305 50.675 20.1835C49.7759 21.7366 49.3263 22.8605 49.3263 23.5553C49.3263 23.9845 49.4693 24.199 49.7554 24.199C50.062 24.199 50.4196 23.8516 50.8283 23.1569ZM57.9397 29.7166C58.9411 29.0422 59.738 28.2861 60.3307 27.4482C60.9233 26.6104 61.2196 25.8236 61.2196 25.088C61.2196 24.7406 61.1685 24.3932 61.0663 24.0458C58.001 24.4136 55.4773 25.2208 53.4951 26.4674C51.5129 27.6935 50.5218 28.8685 50.5218 29.9924C50.5218 30.4829 50.7159 30.8711 51.1042 31.1572C51.4924 31.4638 52.0237 31.617 52.6981 31.617C54.3534 31.617 56.1006 30.9835 57.9397 29.7166ZM75.6875 18.8961C76.2188 19.7748 76.4845 20.7455 76.4845 21.8081C76.4845 23.4634 75.9123 24.9449 74.7679 26.2528C73.6235 27.5402 72.2748 28.1839 70.7217 28.1839C69.5365 28.1839 68.6067 27.8467 67.9323 27.1724C67.2784 26.4776 66.9514 25.5273 66.9514 24.3217C66.9514 22.3803 67.7075 20.6433 69.2197 19.1107C70.732 17.5576 72.4281 16.7811 74.3081 16.7811C74.6555 16.7811 74.9007 16.7913 75.0438 16.8117L75.1357 17.8233C73.5009 17.8233 72.142 18.2933 71.0589 19.2333C69.9758 20.1733 69.4343 21.379 69.4343 22.8503C69.4343 23.729 69.6489 24.4443 70.078 24.996C70.5072 25.5273 71.1304 25.793 71.9478 25.793C72.7857 25.793 73.4498 25.4252 73.9403 24.6895C74.4307 23.9538 74.6759 23.0955 74.6759 22.1147C74.6759 21.1133 74.4818 20.204 74.0935 19.3866L75.6875 18.8961ZM85.8353 18.8961C86.3666 19.7748 86.6322 20.7455 86.6322 21.8081C86.6322 23.4634 86.06 24.9449 84.9157 26.2528C83.7713 27.5402 82.4226 28.1839 80.8695 28.1839C79.6843 28.1839 78.7545 27.8467 78.0801 27.1724C77.4262 26.4776 77.0992 25.5273 77.0992 24.3217C77.0992 22.3803 77.8553 20.6433 79.3675 19.1107C80.8797 17.5576 82.5758 16.7811 84.4559 16.7811C84.8033 16.7811 85.0485 16.7913 85.1915 16.8117L85.2835 17.8233C83.6487 17.8233 82.2897 18.2933 81.2067 19.2333C80.1236 20.1733 79.5821 21.379 79.5821 22.8503C79.5821 23.729 79.7966 24.4443 80.2258 24.996C80.6549 25.5273 81.2782 25.793 82.0956 25.793C82.9335 25.793 83.5976 25.4252 84.088 24.6895C84.5785 23.9538 84.8237 23.0955 84.8237 22.1147C84.8237 21.1133 84.6296 20.204 84.2413 19.3866L85.8353 18.8961ZM99.6307 24.8734L100.397 25.5478C99.2118 27.4891 97.955 28.4598 96.6267 28.4598C95.8093 28.4598 94.9715 27.857 94.1132 26.6513C93.2549 25.4456 92.8258 24.4545 92.8258 23.678C92.8258 23.1875 93.5614 22.6971 95.0328 22.2066C95.5845 22.0227 96.0852 21.7468 96.5348 21.379C97.0048 20.9907 97.2398 20.5922 97.2398 20.1835C97.2398 19.7748 97.1274 19.4683 96.9026 19.2639C96.6778 19.0392 96.3917 18.9268 96.0443 18.9268C93.7965 19.1311 91.4464 22.1555 88.9942 28L87.1244 27.3563C87.1244 26.4776 88.3096 22.9218 90.6801 16.6891C93.071 10.4564 94.7671 6.68606 95.7685 5.37821L97.2704 5.92996C94.5117 10.7322 92.2025 16.3111 90.3429 22.6664C91.9368 20.2755 93.306 18.6815 94.4504 17.8846C95.5948 17.0876 96.688 16.6891 97.7302 16.6891C98.3637 16.6891 98.8644 16.8832 99.2322 17.2715C99.6205 17.6598 99.8146 18.1604 99.8146 18.7735C99.8146 19.3661 99.6614 19.9077 99.3548 20.3981C99.0687 20.8885 98.6498 21.3177 98.0981 21.6855C97.3011 22.2168 96.3202 22.7379 95.1554 23.2488C95.3393 24.2093 95.6561 24.9347 96.1056 25.4252C96.5552 25.9156 97.0661 26.1608 97.6383 26.1608C97.9448 26.1608 98.6089 25.7317 99.6307 24.8734ZM109.719 24.383L110.424 24.9347C109.791 25.8134 108.922 26.5491 107.819 27.1417C106.715 27.7139 105.642 28 104.6 28C103.558 28 102.72 27.6935 102.087 27.0804C101.453 26.4674 101.137 25.6602 101.137 24.6588C101.137 22.7788 102.128 20.9294 104.11 19.1107C106.113 17.2919 108.136 16.3826 110.179 16.3826C111.528 16.3826 112.202 16.9139 112.202 17.9765C112.202 19.08 111.487 20.1937 110.057 21.3177C108.646 22.4416 106.654 23.4634 104.079 24.383C104.263 24.853 104.549 25.2208 104.937 25.4865C105.326 25.7521 105.724 25.885 106.133 25.885C107.012 25.885 108.207 25.3843 109.719 24.383ZM103.926 23.4634C105.581 22.8912 107.001 22.176 108.187 21.3177C109.372 20.4594 109.965 19.6726 109.965 18.9574C109.965 18.6918 109.862 18.4568 109.658 18.2524C109.454 18.048 109.219 17.9459 108.953 17.9459C107.993 17.9459 106.95 18.5487 105.826 19.7544C104.723 20.9396 104.089 22.176 103.926 23.4634ZM121.394 17.1489C121.905 17.1489 122.324 17.3226 122.651 17.67C122.977 18.0174 123.141 18.467 123.141 19.0187C123.141 20.1222 122.507 21.287 121.24 22.5131L120.505 21.9307C120.791 21.2972 120.934 20.8375 120.934 20.5514C120.934 19.9996 120.627 19.7237 120.014 19.7237C119.401 19.7237 118.819 20.112 118.267 20.8885C117.715 21.6651 117.061 22.8708 116.305 24.5056C115.57 26.12 115.008 27.2643 114.619 27.9387L112.872 27.1724C113.996 24.618 114.64 23.116 114.803 22.6664C115.355 21.0725 115.631 19.0494 115.631 16.5971L117.348 16.1374C117.286 17.4656 117.194 18.4976 117.072 19.2333C116.949 19.9485 116.653 21.1235 116.183 22.7584C118.247 19.0187 119.984 17.1489 121.394 17.1489ZM129.96 15.0032C128.816 15.0032 128.244 14.5434 128.244 13.6238C128.244 13.1129 128.387 12.6838 128.673 12.3364C128.959 11.989 129.327 11.8153 129.776 11.8153C130.226 11.8153 130.594 11.9481 130.88 12.2138C131.166 12.4794 131.309 12.8268 131.309 13.256C131.309 13.6851 131.186 14.0836 130.941 14.4514C130.696 14.8193 130.369 15.0032 129.96 15.0032ZM129.562 24.0458L130.175 24.5669C129.684 25.5069 129.03 26.3141 128.213 26.9885C127.416 27.6424 126.691 27.9693 126.037 27.9693C124.892 27.9693 124.32 27.1724 124.32 25.5784C124.32 23.5962 125.138 21.0112 126.772 17.8233C127.14 17.1285 127.355 16.7198 127.416 16.5971L128.734 17.3941C128.305 18.1707 127.774 19.407 127.14 21.1031C126.527 22.7992 126.221 23.8925 126.221 24.383C126.221 24.853 126.323 25.1902 126.527 25.3945C126.731 25.5989 126.977 25.701 127.263 25.701C127.815 25.701 128.581 25.1493 129.562 24.0458ZM138.469 15.9534L137.488 19.6624L141.473 19.2026L140.584 20.6433L137.151 21.1031C136.885 22.2066 136.435 23.8721 135.802 26.0995C134.433 30.9222 133.748 33.9773 133.748 35.2647L131.786 36.2763C131.786 34.5188 132.543 31.1266 134.055 26.0995C134.831 23.586 135.312 21.9716 135.495 21.2564C134.78 21.4403 134.126 21.5323 133.534 21.5323C132.369 21.5323 131.786 21.0725 131.786 20.1529C131.786 19.642 132.175 19.0289 132.951 18.3137C134.075 17.2715 135.414 16.3519 136.967 15.5549C138.172 11.4475 139.041 8.87263 139.572 7.83043C140.288 6.4204 140.941 5.52125 141.534 5.13299C142.413 4.58123 143.322 4.30536 144.262 4.30536C145.202 4.30536 145.866 4.57102 146.255 5.10233C146.643 5.63365 146.817 6.25692 146.776 6.97216C146.674 9.54699 143.905 12.5408 138.469 15.9534ZM143.373 6.91085C142.229 6.91085 141.381 7.4626 140.829 8.5661C140.4 9.42438 140.022 10.4564 139.695 11.662C139.368 12.8677 139.133 13.6953 138.99 14.1449C140.114 13.4501 141.32 12.5101 142.607 11.3249C143.894 10.1396 144.559 9.10764 144.599 8.22892C144.64 7.35021 144.232 6.91085 143.373 6.91085ZM135.925 19.8157L136.599 17.1182C135.822 17.4452 135.209 17.7824 134.76 18.1298C134.331 18.4772 134.116 18.7735 134.116 19.0187C134.116 19.55 134.719 19.8157 135.925 19.8157ZM154.955 26.0689L155.046 26.8658C154.965 26.9272 154.014 27.295 152.196 27.9693C151.951 29.3181 151.634 30.6464 151.246 31.9542C150.878 33.2825 150.5 34.2838 150.111 34.9582C149.744 35.653 149.304 36.3376 148.793 37.0119C147.772 38.3607 146.392 39.035 144.655 39.035C143.797 39.035 143.112 38.7694 142.601 38.238C142.091 37.7067 141.835 36.9813 141.835 36.0617C141.835 32.5264 144.798 29.6859 150.724 27.5402L152.38 21.7162C150.622 24.3523 149.039 25.9769 147.628 26.59C146.934 26.9169 146.198 27.0804 145.421 27.0804C144.665 27.0804 144.052 26.8352 143.582 26.3447C143.133 25.8543 142.908 25.1391 142.908 24.199C142.908 23.259 143.225 21.9512 143.858 20.2755C144.512 18.5794 145.238 17.1591 146.035 16.0147L147.537 16.6585C147.475 16.7198 147.189 17.2613 146.678 18.2831C145.779 20.1427 145.33 21.522 145.33 22.4212C145.33 23.3203 145.503 23.9232 145.851 24.2297C146.198 24.5362 146.709 24.6895 147.383 24.6895C148.058 24.6895 148.814 24.291 149.652 23.494C150.51 22.6766 151.828 21.0725 153.606 18.6815L154.709 19.3252C154.546 19.9996 154.178 21.2257 153.606 23.0036C153.054 24.761 152.676 26.1097 152.472 27.0498L154.955 26.0689ZM150.541 28.4598C149.253 29.0524 148.119 29.7268 147.138 30.4829C145.299 31.8725 144.379 33.2212 144.379 34.5291C144.379 35.0195 144.522 35.418 144.808 35.7245C145.095 36.031 145.452 36.1843 145.881 36.1843C147.925 36.1843 149.478 33.6095 150.541 28.4598Z" fill="black"/>
</svg>
