<svg width="42" height="44" viewBox="0 0 42 44" fill="none" xmlns="http://www.w3.org/2000/svg">
<path d="M29.5217 22.8563L29.4877 24.1801L27.6209 24.248C27.3493 25.832 26.9081 27.1105 26.2971 28.0835C25.7087 29.0566 24.7131 30.1088 23.3101 31.2402C21.9071 32.3717 20.2213 33.3107 18.2526 34.0575C16.3066 34.8269 14.6773 35.2116 13.3648 35.2116C12.0524 35.2116 11.0567 34.94 10.3779 34.3969C9.699 33.8765 9.35957 33.1863 9.35957 32.3264C9.35957 31.0139 10.1289 29.7015 11.6677 28.389C13.2291 27.0539 15.1072 25.9451 17.3022 25.0626C19.5198 24.1575 21.7148 23.5465 23.8871 23.2297C23.5477 22.664 23.0272 22.2001 22.3258 21.838C21.6469 21.476 20.4815 21.0687 18.8296 20.6161C17.9245 20.3672 17.4719 19.9599 17.4719 19.3942C17.4719 19.0547 17.6077 18.7492 17.8792 18.4777C18.1734 18.1835 18.6486 17.8441 19.3048 17.4594C19.9837 17.0521 20.6173 16.6448 21.2056 16.2375C21.8166 15.8075 22.4842 15.2984 23.2083 14.71C23.955 14.1217 24.5773 13.5107 25.0751 12.8771C25.573 12.2435 25.8219 11.6891 25.8219 11.2139C25.8219 10.4219 25.4259 10.0259 24.6339 10.0259C24.0229 10.0259 23.1856 10.3201 22.1221 10.9084C21.0812 11.4741 20.0516 12.2096 19.0333 13.1147L17.5738 17.731C16.5555 20.9668 15.424 23.4786 14.1795 25.2663C12.9575 27.0539 11.7921 27.9478 10.6833 27.9478C9.50666 27.9478 8.91831 27.2237 8.91831 25.7754C8.91831 24.3272 9.6198 22.483 11.0228 20.2427C12.4257 17.9799 14.3718 15.6604 16.861 13.2844C16.861 13.2618 16.9175 13.0581 17.0307 12.6735C17.1664 12.2661 17.2909 11.8588 17.404 11.4515C17.7887 10.2296 18.0829 9.44888 18.2866 9.10945L19.9498 9.381C19.9498 9.81094 19.8592 10.3201 19.6782 10.9084C20.9454 9.95803 22.2805 9.13208 23.6835 8.4306C25.1091 7.70648 26.15 7.34442 26.8062 7.34442C27.4851 7.34442 28.0282 7.5594 28.4355 7.98934C28.8428 8.39665 29.0465 9.00763 29.0465 9.82226C29.0465 10.6143 28.6618 11.5307 27.8924 12.5716C27.1457 13.6125 26.2066 14.5516 25.0751 15.3889C23.0159 16.9276 21.2622 18.0364 19.814 18.7153C22.1674 19.0774 23.8871 19.5639 24.9733 20.1748C26.0595 20.7632 26.8515 21.657 27.3493 22.8563H29.5217ZM13.0254 23.637C14.6094 21.08 15.6616 18.4551 16.1821 15.7623C14.9602 17.0974 13.8513 18.6248 12.8557 20.3446C11.86 22.0643 11.3622 23.3089 11.3622 24.0783C11.3622 24.5535 11.5206 24.7911 11.8374 24.7911C12.1768 24.7911 12.5728 24.4064 13.0254 23.637ZM20.9002 30.9008C22.009 30.1541 22.8915 29.3168 23.5477 28.389C24.2039 27.4613 24.5321 26.5901 24.5321 25.7754C24.5321 25.3907 24.4755 25.0061 24.3623 24.6214C20.968 25.0287 18.1734 25.9225 15.9784 27.3029C13.7835 28.6606 12.686 29.9617 12.686 31.2063C12.686 31.7494 12.9009 32.1793 13.3309 32.4961C13.7608 32.8355 14.3492 33.0053 15.0959 33.0053C16.9288 33.0053 18.8636 32.3038 20.9002 30.9008Z" fill="black"/>
<circle cx="31.8702" cy="32.8895" r="2.22979" fill="black"/>
<path d="M16.4089 5.509C17.5753 4.49761 18.1595 3.9909 18.7698 3.69463C19.4663 3.35596 20.2284 3.18018 21.0003 3.18018C21.7721 3.18018 22.5342 3.35596 23.2307 3.69463C23.841 3.9909 24.4252 4.49761 25.5916 5.509C26.7942 6.55103 28.0148 7.07818 29.6209 7.2069C31.1487 7.33154 31.9136 7.39488 32.552 7.62372C34.0256 8.15495 35.186 9.33388 35.7059 10.8356C35.9308 11.4833 35.993 12.2618 36.1155 13.8187C36.242 15.4533 36.7579 16.6935 37.7818 17.9174C38.7776 19.1045 39.2754 19.6991 39.5665 20.3202C40.2411 21.7566 40.2411 23.4259 39.5665 24.8602C39.2754 25.4813 38.7776 26.0759 37.7838 27.263C36.7897 28.3996 36.2019 29.8446 36.1155 31.3637C35.993 32.9186 35.9308 33.6971 35.7059 34.3468C35.4486 35.0876 35.0315 35.7603 34.4854 36.3158C33.9393 36.8712 33.278 37.2952 32.55 37.5567C31.9136 37.7855 31.1487 37.8488 29.6189 37.9735C28.0128 38.1022 26.7942 38.6273 25.5916 39.6693C24.4252 40.6828 23.841 41.1895 23.2307 41.4857C22.5342 41.8244 21.7721 42.0002 21.0003 42.0002C20.2284 42.0002 19.4663 41.8244 18.7698 41.4857C18.1595 41.1895 17.5753 40.6828 16.4089 39.6714C15.2921 38.6597 13.8723 38.0614 12.3796 37.9735C10.8519 37.8488 10.087 37.7855 9.44854 37.5567C8.72066 37.2947 8.05962 36.8703 7.51387 36.3145C6.96813 35.7587 6.55152 35.0857 6.2946 34.3447C6.06975 33.6971 6.00751 32.9186 5.88505 31.3617C5.79893 29.8435 5.2118 28.3993 4.21874 27.263C3.22297 26.0759 2.72509 25.4813 2.43198 24.8602C2.09952 24.1512 1.92714 23.3755 1.92749 22.59C1.92784 21.8044 2.1009 21.0289 2.43399 20.3202C2.72509 19.6991 3.22297 19.1045 4.21673 17.9174C5.26069 16.669 5.76058 15.4185 5.88505 13.8167C6.00751 12.2618 6.06975 11.4833 6.2946 10.8336C6.55198 10.0928 6.96901 9.42003 7.5151 8.86461C8.06119 8.30919 8.72251 7.88519 9.45055 7.62372C10.087 7.39488 10.8519 7.33154 12.3816 7.2069C13.8734 7.11925 15.2924 6.51967 16.4089 5.509Z" stroke="black" stroke-width="3.1008" stroke-linecap="round" stroke-linejoin="round"/>
</svg>
