<svg width="436" height="464" viewBox="0 0 436 464" fill="none" xmlns="http://www.w3.org/2000/svg">
<path d="M308.073 244.694L307.715 258.658L288.022 259.374C285.158 276.083 280.503 289.569 274.059 299.833C267.853 310.097 257.35 321.196 242.551 333.131C227.752 345.065 209.969 354.971 189.203 362.848C168.675 370.964 151.489 375.022 137.645 375.022C123.8 375.022 113.298 372.157 106.137 366.429C98.9762 360.939 95.3958 353.658 95.3958 344.588C95.3958 330.744 103.511 316.9 119.743 303.055C136.213 288.972 156.024 277.276 179.178 267.967C202.57 258.419 225.723 251.975 248.638 248.633C245.057 242.666 239.567 237.772 232.168 233.953C225.007 230.134 212.714 225.838 195.289 221.064C185.742 218.438 180.968 214.142 180.968 208.174C180.968 204.594 182.4 201.371 185.264 198.507C188.367 195.404 193.38 191.824 200.302 187.766C207.463 183.469 214.146 179.173 220.352 174.876C226.797 170.341 233.839 164.97 241.477 158.764C249.354 152.558 255.918 146.114 261.169 139.43C266.42 132.747 269.046 126.899 269.046 121.886C269.046 113.532 264.869 109.355 256.515 109.355C250.07 109.355 241.238 112.458 230.02 118.664C219.04 124.631 208.179 132.389 197.438 141.936L182.042 190.63C171.301 224.763 159.366 251.259 146.238 270.115C133.348 288.972 121.055 298.401 109.359 298.401C96.9473 298.401 90.7413 290.762 90.7413 275.486C90.7413 260.21 98.1408 240.756 112.94 217.125C127.739 193.256 148.267 168.79 174.523 143.727C174.523 143.488 175.12 141.34 176.313 137.282C177.745 132.985 179.058 128.689 180.252 124.392C184.31 111.503 187.413 103.268 189.561 99.6875L207.105 102.552C207.105 107.087 206.15 112.458 204.241 118.664C217.607 108.639 231.69 99.9262 246.489 92.5266C261.527 84.8884 272.507 81.0693 279.429 81.0693C286.59 81.0693 292.319 83.3369 296.615 87.8721C300.912 92.1686 303.06 98.6134 303.06 107.206C303.06 115.561 299.002 125.228 290.887 136.208C283.01 147.188 273.104 157.094 261.169 165.925C239.448 182.156 220.949 193.852 205.673 201.013C230.497 204.832 248.638 209.964 260.095 216.409C271.552 222.615 279.907 232.044 285.158 244.694H308.073ZM134.064 252.929C150.773 225.957 161.872 198.268 167.362 169.864C154.473 183.947 142.777 200.059 132.274 218.199C121.772 236.34 116.52 249.468 116.52 257.584C116.52 262.597 118.191 265.103 121.533 265.103C125.113 265.103 129.29 261.045 134.064 252.929ZM217.13 329.55C228.826 321.673 238.135 312.842 245.057 303.055C251.979 293.269 255.441 284.079 255.441 275.486C255.441 271.428 254.844 267.37 253.65 263.313C217.846 267.609 188.367 277.038 165.214 291.598C142.061 305.92 130.484 319.645 130.484 332.773C130.484 338.501 132.751 343.037 137.287 346.378C141.822 349.959 148.028 351.749 155.905 351.749C175.239 351.749 195.648 344.349 217.13 329.55Z" fill="white"/>
<circle cx="332.846" cy="347.429" r="23.5206" fill="white"/>
<path d="M169.755 59.1293C182.059 48.3653 188.221 42.9724 194.659 39.8193C202.006 36.2148 210.045 34.344 218.187 34.344C226.329 34.344 234.368 36.2148 241.714 39.8193C248.152 42.9724 254.314 48.3653 266.618 59.1293C279.303 70.2195 292.179 75.8299 309.12 77.1999C325.236 78.5263 333.304 79.2004 340.038 81.6359C355.582 87.2898 367.823 99.837 373.307 115.82C375.679 122.713 376.336 130.998 377.627 147.568C378.962 164.965 384.404 178.164 395.204 191.19C405.708 203.824 410.96 210.152 414.03 216.763C421.146 232.05 421.146 249.816 414.03 265.081C410.96 271.692 405.708 278.02 395.225 290.654C384.74 302.751 378.539 318.129 377.627 334.297C376.336 350.846 375.679 359.131 373.307 366.046C370.592 373.93 366.193 381.09 360.433 387.001C354.673 392.913 347.697 397.425 340.017 400.208C333.304 402.644 325.236 403.318 309.099 404.644C292.157 406.014 279.303 411.603 266.618 422.693C254.314 433.479 248.152 438.872 241.714 442.025C234.368 445.629 226.329 447.5 218.187 447.5C210.045 447.5 202.006 445.629 194.659 442.025C188.221 438.872 182.059 433.479 169.755 422.715C157.974 411.947 142.998 405.58 127.253 404.644C111.137 403.318 103.069 402.644 96.3348 400.208C88.6568 397.42 81.6839 392.903 75.9272 386.988C70.1705 381.073 65.776 373.91 63.0659 366.024C60.6941 359.131 60.0376 350.846 58.7458 334.276C57.8373 318.118 51.6441 302.747 41.169 290.654C30.6652 278.02 25.4133 271.692 22.3215 265.081C18.8146 257.536 16.9963 249.28 17 240.92C17.0037 232.559 18.8292 224.305 22.3427 216.763C25.4133 210.152 30.6652 203.824 41.1478 191.19C52.1598 177.903 57.4328 164.595 58.7458 147.547C60.0376 130.998 60.6941 122.713 63.0659 115.798C65.7809 107.914 70.1798 100.754 75.9402 94.8426C81.7005 88.9313 88.6763 84.4188 96.3559 81.6359C103.069 79.2004 111.137 78.5263 127.274 77.1999C143.01 76.267 157.978 69.8857 169.755 59.1293Z" stroke="white" stroke-width="32.7083" stroke-linecap="round" stroke-linejoin="round"/>
</svg>
