<svg width="22" height="22" viewBox="0 0 22 22" fill="none" xmlns="http://www.w3.org/2000/svg">
<path d="M21 11C21 16.523 16.523 21 11 21C5.477 21 1 16.523 1 11C1 5.477 5.477 1 11 1C16.523 1 21 5.477 21 11Z" stroke="black" stroke-width="1.5" stroke-linecap="round" stroke-linejoin="round"/>
<path d="M4.5 18L5.06 17.02C5.4973 16.2544 6.12926 15.6181 6.8918 15.1756C7.65434 14.733 8.52034 14.4999 9.402 14.5H12.598C13.4797 14.4999 14.3457 14.733 15.1082 15.1756C15.8707 15.6181 16.5027 16.2544 16.94 17.02L17.5 18M13.75 8.5C13.75 9.22935 13.4603 9.92882 12.9445 10.4445C12.4288 10.9603 11.7293 11.25 11 11.25C10.2707 11.25 9.57118 10.9603 9.05546 10.4445C8.53973 9.92882 8.25 9.22935 8.25 8.5C8.25 7.77065 8.53973 7.07118 9.05546 6.55546C9.57118 6.03973 10.2707 5.75 11 5.75C11.7293 5.75 12.4288 6.03973 12.9445 6.55546C13.4603 7.07118 13.75 7.77065 13.75 8.5Z" stroke="black" stroke-width="1.5" stroke-linecap="round" stroke-linejoin="round"/>
</svg>
