<svg width="437" height="464" viewBox="0 0 437 464" fill="none" xmlns="http://www.w3.org/2000/svg">
<path d="M308.389 244.694L308.031 258.658L288.339 259.374C285.474 276.083 280.82 289.569 274.375 299.833C268.169 310.097 257.666 321.196 242.867 333.131C228.068 345.065 210.286 354.971 189.519 362.848C168.991 370.964 151.805 375.022 137.961 375.022C124.117 375.022 113.614 372.157 106.453 366.429C99.2926 360.939 95.7122 353.658 95.7122 344.588C95.7122 330.744 103.828 316.9 120.059 303.055C136.529 288.972 156.341 277.276 179.494 267.967C202.886 258.419 226.039 251.975 248.954 248.633C245.374 242.666 239.884 237.772 232.484 233.953C225.323 230.134 213.031 225.838 195.606 221.064C186.058 218.438 181.284 214.142 181.284 208.174C181.284 204.594 182.716 201.371 185.581 198.507C188.684 195.404 193.696 191.824 200.618 187.766C207.779 183.469 214.463 179.173 220.669 174.876C227.114 170.341 234.155 164.97 241.793 158.764C249.67 152.558 256.234 146.114 261.486 139.43C266.737 132.747 269.362 126.899 269.362 121.886C269.362 113.532 265.185 109.355 256.831 109.355C250.386 109.355 241.555 112.458 230.336 118.664C219.356 124.631 208.495 132.389 197.754 141.936L182.358 190.63C171.617 224.763 159.682 251.259 146.554 270.115C133.665 288.972 121.372 298.401 109.676 298.401C97.2637 298.401 91.0577 290.762 91.0577 275.486C91.0577 260.21 98.4572 240.756 113.256 217.125C128.055 193.256 148.583 168.79 174.839 143.727C174.839 143.488 175.436 141.34 176.63 137.282C178.062 132.985 179.375 128.689 180.568 124.392C184.626 111.503 187.729 103.268 189.877 99.6875L207.421 102.552C207.421 107.087 206.466 112.458 204.557 118.664C217.924 108.639 232.007 99.9262 246.806 92.5266C261.844 84.8884 272.824 81.0693 279.746 81.0693C286.907 81.0693 292.635 83.3369 296.932 87.8721C301.228 92.1686 303.376 98.6134 303.376 107.206C303.376 115.561 299.319 125.228 291.203 136.208C283.326 147.188 273.42 157.094 261.486 165.925C239.764 182.156 221.266 193.852 205.989 201.013C230.813 204.832 248.954 209.964 260.411 216.409C271.869 222.615 280.223 232.044 285.474 244.694H308.389ZM134.381 252.929C151.089 225.957 162.189 198.268 167.679 169.864C154.789 183.947 143.093 200.059 132.591 218.199C122.088 236.34 116.837 249.468 116.837 257.584C116.837 262.597 118.508 265.103 121.849 265.103C125.43 265.103 129.607 261.045 134.381 252.929ZM217.446 329.55C229.142 321.673 238.452 312.842 245.374 303.055C252.296 293.269 255.757 284.079 255.757 275.486C255.757 271.428 255.16 267.37 253.967 263.313C218.163 267.609 188.684 277.038 165.53 291.598C142.377 305.92 130.8 319.645 130.8 332.773C130.8 338.501 133.068 343.037 137.603 346.378C142.138 349.959 148.344 351.749 156.221 351.749C175.556 351.749 195.964 344.349 217.446 329.55Z" fill="black"/>
<circle cx="333.163" cy="347.429" r="23.5206" fill="black"/>
<path d="M170.071 59.1293C182.375 48.3653 188.538 42.9724 194.975 39.8193C202.322 36.2148 210.361 34.344 218.503 34.344C226.645 34.344 234.684 36.2148 242.031 39.8193C248.468 42.9724 254.631 48.3653 266.935 59.1293C279.619 70.2195 292.495 75.8299 309.437 77.1999C325.552 78.5263 333.621 79.2004 340.355 81.6359C355.899 87.2898 368.139 99.837 373.624 115.82C375.996 122.713 376.652 130.998 377.944 147.568C379.278 164.965 384.72 178.164 395.521 191.19C406.024 203.824 411.276 210.152 414.347 216.763C421.462 232.05 421.462 249.816 414.347 265.081C411.276 271.692 406.024 278.02 395.542 290.654C385.056 302.751 378.855 318.129 377.944 334.297C376.652 350.846 375.996 359.131 373.624 366.046C370.909 373.93 366.51 381.09 360.749 387.001C354.989 392.913 348.013 397.425 340.334 400.208C333.621 402.644 325.552 403.318 309.415 404.644C292.474 406.014 279.619 411.603 266.935 422.693C254.631 433.479 248.468 438.872 242.031 442.025C234.684 445.629 226.645 447.5 218.503 447.5C210.361 447.5 202.322 445.629 194.975 442.025C188.538 438.872 182.375 433.479 170.071 422.715C158.291 411.947 143.315 405.58 127.569 404.644C111.454 403.318 103.385 402.644 96.6512 400.208C88.9732 397.42 82.0003 392.903 76.2436 386.988C70.4869 381.073 66.0924 373.91 63.3823 366.024C61.0105 359.131 60.354 350.846 59.0622 334.276C58.1537 318.118 51.9605 302.747 41.4854 290.654C30.9816 278.02 25.7298 271.692 22.6379 265.081C19.131 257.536 17.3127 249.28 17.3164 240.92C17.3201 232.559 19.1456 224.305 22.6591 216.763C25.7298 210.152 30.9816 203.824 41.4642 191.19C52.4762 177.903 57.7492 164.595 59.0622 147.547C60.354 130.998 61.0105 122.713 63.3823 115.798C66.0973 107.914 70.4962 100.754 76.2566 94.8426C82.0169 88.9313 88.9927 84.4188 96.6723 81.6359C103.385 79.2004 111.454 78.5263 127.591 77.1999C143.326 76.267 158.294 69.8857 170.071 59.1293Z" stroke="black" stroke-width="32.7083" stroke-linecap="round" stroke-linejoin="round"/>
</svg>
